<?xml version="1.0" standalone="no"?>
<!DOCTYPE svg PUBLIC "-//W3C//DTD SVG 20010904//EN"
 "http://www.w3.org/TR/2001/REC-SVG-20010904/DTD/svg10.dtd">
<svg version="1.0" xmlns="http://www.w3.org/2000/svg"
 width="597.000000pt" height="597.000000pt" viewBox="0 0 597.000000 597.000000"
 preserveAspectRatio="xMidYMid meet">
<metadata>
Created by potrace 1.11, written by Peter Selinger 2001-2013
</metadata>
<g transform="translate(0.000000,597.000000) scale(0.100000,-0.100000)"
fill="#000000" stroke="none">
<path d="M2935 5570 c-41 -16 -207 -167 -481 -436 l-281 -276 -526 1 c-517 2
-526 2 -547 -19 -11 -11 -20 -32 -21 -47 -1 -16 -3 -219 -5 -453 -2 -234 -4
-455 -5 -492 l-1 -66 -356 -349 c-196 -191 -367 -358 -379 -370 -18 -17 -23
-32 -21 -60 2 -32 17 -52 113 -151 209 -218 388 -392 565 -550 l44 -40 2 -158
c4 -329 15 -851 20 -889 7 -66 26 -73 189 -75 177 -1 557 -10 610 -14 22 -1
86 -6 143 -11 l103 -8 124 -121 c391 -385 639 -622 657 -628 11 -5 29 -3 41 4
45 24 653 627 692 687 l26 39 550 -3 c638 -4 588 -12 590 98 0 34 2 71 5 82 2
11 6 178 9 370 3 193 7 402 9 467 l3 116 340 336 c187 185 345 348 352 362 20
44 12 63 -56 136 -38 39 -75 79 -83 88 -8 9 -57 63 -109 120 -226 251 -281
311 -373 404 l-97 99 3 491 c1 285 -1 503 -7 519 -5 15 -17 32 -26 37 -20 10
-128 17 -446 26 -126 3 -264 8 -305 9 -41 2 -123 4 -182 5 l-106 2 -184 191
c-529 552 -530 553 -593 527z m186 -278 c80 -81 172 -178 205 -217 32 -38 76
-88 96 -110 21 -22 38 -43 38 -46 0 -3 -50 5 -112 17 -158 33 -172 34 -373 39
-202 4 -381 -16 -550 -62 -11 -3 57 70 150 162 234 230 378 365 390 365 5 0
75 -67 156 -148z m49 -447 c19 -3 60 -10 90 -16 30 -5 66 -12 80 -15 14 -3 35
-7 48 -10 67 -14 251 -82 347 -128 197 -94 365 -215 522 -374 81 -82 233 -269
233 -287 0 -3 11 -21 24 -38 82 -111 207 -416 242 -590 2 -10 5 -26 8 -35 5
-17 9 -43 26 -167 5 -38 7 -155 5 -260 -3 -171 -8 -219 -40 -376 -8 -40 -54
-201 -64 -224 -5 -11 -24 -56 -42 -100 -173 -415 -506 -766 -912 -960 -142
-68 -253 -107 -398 -139 -153 -34 -226 -41 -409 -40 -184 0 -332 21 -502 70
-132 38 -145 43 -298 116 -504 244 -880 723 -1006 1280 -69 305 -53 688 41
988 164 522 544 946 1045 1168 111 49 289 103 386 117 21 4 46 8 54 10 8 3 44
7 80 11 36 3 67 8 68 9 6 6 335 -3 372 -10z m-1240 -115 l55 0 -68 -40 c-250
-146 -520 -420 -677 -687 -29 -48 -54 -90 -56 -92 -2 -2 -2 18 0 45 6 60 18
400 21 589 2 77 3 153 4 168 l1 28 333 -5 c182 -3 357 -5 387 -6z m2499 -24
c123 -3 226 -8 229 -11 5 -5 11 -725 6 -725 -1 0 -17 24 -34 53 -154 251 -410
512 -640 652 -33 20 -60 38 -60 40 0 2 62 2 138 0 75 -3 238 -7 361 -9z
m-3408 -1237 c-16 -63 -32 -136 -35 -164 -4 -27 -9 -57 -11 -65 -14 -50 -22
-384 -11 -450 2 -14 7 -52 11 -85 7 -59 30 -182 42 -219 10 -33 -59 28 -319
284 l-243 238 295 290 c162 160 296 289 297 288 2 -1 -10 -54 -26 -117z m3983
-120 c34 -36 88 -96 121 -133 33 -38 85 -96 117 -130 79 -85 118 -130 118
-136 0 -6 -413 -424 -464 -469 l-39 -34 6 29 c17 79 47 256 52 309 7 67 7 309
0 370 -13 118 -43 288 -60 340 -7 20 29 -15 149 -146z m-3640 -1597 c99 -131
251 -285 377 -380 52 -39 105 -80 119 -91 l25 -20 -140 4 c-77 2 -232 6 -345
10 -113 3 -213 5 -222 5 -17 0 -18 25 -16 394 l2 395 60 -105 c33 -58 96 -153
140 -212z m3311 46 c-2 -106 -4 -282 -4 -391 l-1 -198 -132 6 c-73 3 -239 7
-369 7 l-237 2 87 59 c183 125 336 265 460 422 65 82 150 205 177 257 8 15 16
28 19 28 2 0 2 -87 0 -192z m-2217 -777 c173 -44 277 -56 477 -56 194 0 282 8
418 39 31 7 57 12 57 10 0 -2 -113 -115 -251 -251 -138 -136 -253 -250 -255
-252 -3 -3 -82 72 -177 166 -95 95 -219 217 -277 273 -58 56 -97 99 -87 96 10
-3 53 -15 95 -25z"/>
<path d="M2312 4301 c-9 -6 -16 -32 -26 -96 -20 -122 -108 -700 -122 -795 -7
-48 -11 -74 -23 -150 -13 -80 -20 -123 -27 -175 -3 -22 -12 -78 -19 -125 -8
-47 -17 -105 -20 -130 -5 -41 -15 -100 -60 -385 -8 -49 -17 -110 -20 -135 -3
-25 -10 -70 -15 -100 -5 -30 -12 -71 -14 -90 -2 -19 -14 -92 -25 -162 -11 -70
-23 -151 -27 -180 -3 -29 -9 -70 -14 -91 -5 -25 -4 -40 4 -45 17 -11 146 -9
155 2 5 6 23 111 40 233 18 122 34 230 35 240 2 10 7 43 11 73 4 30 9 62 10
71 2 9 6 40 10 69 4 29 8 60 10 69 1 9 6 41 9 73 l7 56 205 1 c112 0 204 -3
205 -7 0 -4 2 -16 4 -27 13 -68 27 -154 31 -180 2 -16 6 -41 9 -55 3 -14 7
-43 10 -65 4 -22 10 -65 15 -95 5 -30 12 -73 15 -95 3 -22 14 -92 25 -155 10
-63 21 -133 25 -154 8 -58 16 -63 93 -61 37 1 71 3 76 4 7 1 5 35 -9 139 -3
20 -8 46 -10 58 -3 12 -7 39 -10 60 -4 21 -13 77 -20 124 -8 47 -19 117 -25
155 -16 109 -20 136 -30 190 -5 28 -12 68 -15 90 -3 22 -10 65 -15 95 -5 30
-12 73 -15 95 -3 22 -10 65 -15 95 -5 30 -11 71 -14 90 -3 19 -15 94 -26 165
-12 72 -23 141 -25 155 -2 14 -11 70 -20 125 -9 55 -18 114 -21 130 -2 17 -9
55 -14 85 -5 30 -12 71 -14 90 -6 46 -16 109 -21 140 -3 14 -7 39 -9 55 -3 17
-14 84 -25 150 -25 154 -29 180 -37 240 -4 27 -12 70 -18 94 l-11 46 -82 1
c-45 0 -86 -2 -91 -5z m105 -543 c7 -51 16 -111 19 -133 2 -22 7 -51 9 -65 4
-24 71 -468 81 -540 3 -19 7 -46 9 -59 2 -13 7 -45 11 -70 4 -25 8 -55 10 -66
2 -11 7 -41 10 -67 l7 -48 -177 0 c-97 0 -176 3 -176 8 0 4 4 34 9 67 11 72
51 330 56 365 2 14 7 48 11 75 3 28 7 52 9 55 2 3 6 30 10 60 3 30 15 107 25
170 11 63 22 135 25 160 3 25 8 54 10 65 1 11 6 44 10 73 4 29 10 51 12 48 3
-3 12 -47 20 -98z"/>
<path d="M3103 4303 c-10 -4 -13 -279 -13 -1333 0 -1257 1 -1329 18 -1334 9
-2 125 -3 257 -2 234 2 241 3 295 28 118 55 210 191 261 388 38 148 49 448 23
614 -25 157 -94 318 -157 367 l-20 17 26 44 c66 113 108 311 110 518 3 306
-37 476 -141 591 -45 50 -90 79 -147 94 -31 8 -490 15 -512 8z m467 -189 c57
-27 98 -67 121 -122 25 -57 29 -78 37 -202 22 -315 -21 -576 -110 -656 -33
-31 -73 -37 -230 -39 l-138 -1 0 524 0 524 138 -4 c112 -3 145 -7 182 -24z
m47 -1209 c38 -7 87 -59 114 -123 38 -87 58 -243 55 -422 -3 -185 -17 -263
-69 -368 -34 -69 -77 -119 -140 -160 -38 -26 -48 -27 -184 -30 l-143 -4 0 555
0 556 23 3 c34 5 308 -1 344 -7z"/>
</g>
</svg>
